<svg width="512" height="512" viewBox="0 0 512 512" fill="none" xmlns="http://www.w3.org/2000/svg">
<path d="M24.8887 127.289V76.0887C24.8887 62.5096 30.2829 49.4867 39.8848 39.8848C49.4867 30.2829 62.5096 24.8887 76.0887 24.8887H127.289M383.289 24.8887H434.489C448.068 24.8887 461.091 30.2829 470.693 39.8848C480.294 49.4867 485.689 62.5096 485.689 76.0887V127.289M485.689 383.289V434.489C485.689 448.068 480.294 461.091 470.693 470.693C461.091 480.294 448.068 485.689 434.489 485.689H383.289M127.289 485.689H76.0887C62.5096 485.689 49.4867 480.294 39.8848 470.693C30.2829 461.091 24.8887 448.068 24.8887 434.489V383.289M280.889 255.289C280.889 269.427 269.427 280.889 255.289 280.889C241.15 280.889 229.689 269.427 229.689 255.289C229.689 241.15 241.15 229.689 255.289 229.689C269.427 229.689 280.889 241.15 280.889 255.289ZM433.055 263.737C434.967 258.267 434.967 252.31 433.055 246.841C418.642 211.524 394.036 181.3 362.375 160.025C330.714 138.75 293.434 127.388 255.289 127.388C217.144 127.388 179.863 138.75 148.202 160.025C116.542 181.3 91.9354 211.524 77.5223 246.841C75.6102 252.31 75.6102 258.267 77.5223 263.737C91.9354 299.054 116.542 329.277 148.202 350.552C179.863 371.827 217.144 383.189 255.289 383.189C293.434 383.189 330.714 371.827 362.375 350.552C394.036 329.277 418.642 299.054 433.055 263.737Z" stroke="#006DEB" stroke-width="47.7916" stroke-linecap="round" stroke-linejoin="round"/>
<rect x="252.696" y="250.499" width="6.6048" height="6.6048" fill="#006DEB" stroke="#006DEB" stroke-width="2.17234"/>
</svg>
